# xmcd
#
# Track frame offsets:
#	150
#	15145
#	30161
#	58846
#
# Disc length: 1019 seconds
#
# Revision: 1
# Processed by: cddbd v1.4PL0 Copyright (c) Steve Scherf et al.
# Submitted via: audiograbber 1.80.04
#
DISCID=1e03f904
DTITLE=Wonderwall - Witchcraft Maxi
DYEAR=2003
DGENRE=Pop-Folk
TTITLE0=Witchcraft 2003
TTITLE1=Witchcraft
TTITLE2=Blues in Summertime
TTITLE3=Witchcraft 2003 Enhanced Videofile
EXTD=
EXTT0=
EXTT1=
EXTT2=
EXTT3=
PLAYORDER=
